<svg width="32" height="35" viewBox="0 0 32 35" fill="none" xmlns="http://www.w3.org/2000/svg">
<path d="M16.9522 34.6446C17.6665 34.6282 18.352 34.3596 18.8874 33.8865C19.4228 33.4133 19.7736 32.7661 19.8778 32.0592H13.9133C14.0204 32.7853 14.3876 33.4477 14.9466 33.9233C15.5056 34.3989 16.2184 34.6552 16.9522 34.6446Z" fill="#C5C5C5"/>
<path d="M31.7503 28.4539L31.3881 28.1343C30.3604 27.2186 29.4609 26.1686 28.7138 25.0125C27.8979 23.417 27.4089 21.6747 27.2755 19.8877V14.6244C27.2711 13.9851 27.2141 13.3472 27.105 12.7172C25.3002 12.3463 23.6791 11.3631 22.5161 9.93405C21.3531 8.50503 20.7196 6.71801 20.723 4.87554V4.20431C19.6105 3.65687 18.4154 3.29688 17.1857 3.13886V1.7964C17.1857 1.41916 17.0358 1.05737 16.7691 0.790627C16.5023 0.52388 16.1405 0.374023 15.7633 0.374023C15.3861 0.374023 15.0243 0.52388 14.7575 0.790627C14.4908 1.05737 14.3409 1.41916 14.3409 1.7964V3.19213C11.5875 3.58054 9.06757 4.95198 7.24635 7.05324C5.42512 9.15451 4.42558 11.8437 4.43226 14.6244V19.8877C4.29882 21.6747 3.8098 23.417 2.99391 25.0125C2.25969 26.1657 1.37464 27.2156 0.362252 28.1343L0 28.4539V31.4585H31.7503V28.4539Z" fill="#C5C5C5"/>
</svg>
