<svg width="46" height="46" viewBox="0 0 46 46" fill="none" xmlns="http://www.w3.org/2000/svg">
<path d="M31.2769 17.375C31.2769 19.6128 30.3879 21.7589 28.8056 23.3412C27.2232 24.9236 25.0771 25.8125 22.8394 25.8125C20.6016 25.8125 18.4555 24.9236 16.8731 23.3412C15.2908 21.7589 14.4019 19.6128 14.4019 17.375C14.4019 15.1372 15.2908 12.9911 16.8731 11.4088C18.4555 9.82645 20.6016 8.9375 22.8394 8.9375C25.0771 8.9375 27.2232 9.82645 28.8056 11.4088C30.3879 12.9911 31.2769 15.1372 31.2769 17.375Z" fill="#FF7C00"/>
<path fillRule="evenodd" clipRule="evenodd" d="M0.339355 23C0.339355 17.0326 2.70988 11.3097 6.92945 7.0901C11.149 2.87053 16.872 0.5 22.8394 0.5C28.8067 0.5 34.5297 2.87053 38.7493 7.0901C42.9688 11.3097 45.3394 17.0326 45.3394 23C45.3394 28.9674 42.9688 34.6903 38.7493 38.9099C34.5297 43.1295 28.8067 45.5 22.8394 45.5C16.872 45.5 11.149 43.1295 6.92945 38.9099C2.70988 34.6903 0.339355 28.9674 0.339355 23ZM22.8394 3.3125C19.1319 3.3127 15.4998 4.35977 12.3611 6.3332C9.22246 8.30664 6.70484 11.1262 5.098 14.4674C3.49117 17.8086 2.86044 21.5356 3.27841 25.2195C3.69638 28.9034 5.14607 32.3943 7.46061 35.2906C9.45748 32.0731 13.8534 28.625 22.8394 28.625C31.8253 28.625 36.2184 32.0703 38.2181 35.2906C40.5326 32.3943 41.9823 28.9034 42.4003 25.2195C42.8183 21.5356 42.1875 17.8086 40.5807 14.4674C38.9739 11.1262 36.4562 8.30664 33.3176 6.3332C30.1789 4.35977 26.5469 3.3127 22.8394 3.3125Z" fill="#FF7C00"/>
</svg>
