<svg width="100" height="20" viewBox="0 0 100 20" fill="none" xmlns="http://www.w3.org/2000/svg">
<path d="M20.7599 15.8615V4.82266H22.5061V15.8615H20.7599ZM21.633 0.230957L22.5031 2.33158H20.7569L21.627 0.230957H21.633ZM90.8647 4.67434C88.9774 4.67434 87.6332 4.974 86.8321 5.57331C86.025 6.17565 85.6259 7.18359 85.6259 8.60014V9.99249C85.6259 11.3515 86.034 12.3231 86.8471 12.9104C87.6632 13.4976 89.0014 13.7912 90.8677 13.7912H94.6272C96.4935 13.7912 97.8316 13.4976 98.6478 12.9104C99.4609 12.3231 99.8689 11.3515 99.8689 9.99249V8.60014C99.8689 7.18056 99.4669 6.17263 98.6628 5.57331C97.8616 4.974 96.5175 4.67434 94.6302 4.67434H90.8647ZM86.6791 16.0129H98.8158V14.8415H86.6791V16.0129ZM1.91427 1.98955V14.1211H12.8748C14.321 14.1211 15.3411 13.8396 15.9232 13.2766C16.5053 12.7136 16.7963 11.739 16.7963 10.3466V5.78822C16.7963 4.31718 16.5233 3.31832 15.9742 2.78863C15.4282 2.25591 14.396 1.98955 12.8778 1.98955H1.91427ZM11.6476 0.249118C13.1658 0.249118 14.309 0.327816 15.0831 0.485211C15.8572 0.642606 16.4903 0.899887 16.9884 1.25403C17.6185 1.71713 18.0775 2.31342 18.3656 3.04591C18.6536 3.7784 18.7976 4.74699 18.7976 5.94259V10.165C18.7976 11.3606 18.6536 12.3262 18.3656 13.0617C18.0775 13.7942 17.6215 14.3935 16.9884 14.8536C16.4903 15.2138 15.8572 15.4771 15.0831 15.6315C14.309 15.7858 13.1658 15.8615 11.6476 15.8615H0V0.249118H11.6476ZM70.5278 15.8615V4.82266H72.2531V6.85972C72.6611 6.08787 73.2972 5.52791 74.1523 5.18588C75.0075 4.84687 76.2256 4.67434 77.8068 4.67434C80.0662 4.67434 81.6384 4.97097 82.5265 5.56423C83.4146 6.15749 83.8557 7.19267 83.8557 8.66371V15.8615H82.1304V9.13589C82.1304 8.4821 82.0764 8.00386 81.9714 7.71026C81.8604 7.41665 81.6744 7.17451 81.4044 6.98382C81.0983 6.76286 80.6002 6.59335 79.9011 6.47531C79.205 6.36029 78.3439 6.30278 77.3178 6.30278C75.4785 6.30278 74.1793 6.52676 73.4082 6.98382C72.6371 7.43784 72.2561 8.19758 72.2561 9.25999V15.8585H70.5308L70.5278 15.8615ZM60.4134 13.7155H63.1468C64.599 13.7155 65.5831 13.5127 66.1052 13.1071C66.6303 12.7015 66.8883 11.972 66.8883 10.9248V9.07838C66.8883 8.03715 66.6303 7.31071 66.1052 6.90209C65.5831 6.49044 64.596 6.28765 63.1468 6.28765H60.4134C58.9672 6.28765 57.9801 6.49044 57.455 6.89604C56.9329 7.30163 56.6719 8.0311 56.6719 9.07838V10.9248C56.6719 11.972 56.9329 12.7045 57.455 13.1071C57.9801 13.5127 58.9672 13.7155 60.4134 13.7155ZM68.5266 15.6769C68.5266 17.0359 68.0945 18.059 67.2244 18.7431C66.3543 19.4271 65.0581 19.7692 63.3328 19.7692H60.1224C58.4301 19.7692 57.173 19.4695 56.3479 18.8702C55.5257 18.2678 55.0907 17.3386 55.0487 16.0734L56.7739 16.0855C56.7889 16.8089 57.062 17.3235 57.59 17.6201C58.1211 17.9198 59.0632 18.0711 60.4134 18.0711H63.1468C64.59 18.0711 65.5651 17.8895 66.0812 17.5202C66.5913 17.154 66.8523 16.485 66.8523 15.5134V13.7791C66.4563 14.3481 66.0212 14.7476 65.5471 14.9807C65.0701 15.2107 64.398 15.3258 63.5249 15.3258H60.1254C58.2951 15.3258 56.9749 14.9595 56.1648 14.2331C55.3517 13.5066 54.9467 12.3141 54.9467 10.6614V9.32658C54.9467 7.68301 55.3577 6.49952 56.1768 5.77006C56.999 5.04059 58.3341 4.67434 60.1824 4.67434H62.5827C64.0199 4.67434 65.0251 4.8045 65.5982 5.05875C66.1742 5.31301 66.6153 5.75795 66.9273 6.39056V4.82569H68.5236V15.6769H68.5266ZM48.0877 4.67434C50.146 4.67434 51.5802 5.06178 52.3873 5.83059C53.1914 6.59941 53.5965 7.94938 53.5965 9.87747C53.5965 10.1105 53.5965 10.2861 53.5935 10.4041C53.5905 10.5222 53.5845 10.6342 53.5755 10.731L41.6128 10.7431V11.3394C41.6128 12.5017 41.8918 13.3159 42.4529 13.776C43.014 14.2391 43.9921 14.4661 45.3843 14.4661H48.2317C49.4439 14.4661 50.338 14.3148 50.9171 14.0121C51.4962 13.7094 51.7872 13.2403 51.7872 12.6046V12.4896H53.5965V12.7711C53.5965 13.8335 53.1734 14.6387 52.3333 15.1865C51.4932 15.7344 50.257 16.0098 48.6368 16.0098H45.3663C43.3981 16.0098 41.9879 15.6406 41.1417 14.9081C40.2926 14.1756 39.8666 12.9558 39.8666 11.2516V9.48701C39.8666 7.75566 40.2896 6.51768 41.1297 5.77914C41.9699 5.04059 43.3831 4.67434 45.3663 4.67434H48.0877ZM41.6128 9.14195H51.7662V8.88164C51.7662 7.89489 51.5172 7.21386 51.0191 6.84156C50.521 6.47228 49.5279 6.28765 48.0457 6.28765H45.3363C43.9561 6.28765 42.99 6.50255 42.4409 6.93236C41.8918 7.3652 41.6158 8.10374 41.6158 9.14497L41.6128 9.14195ZM29.3441 10.9671C27.3638 10.9671 26.0766 10.7583 25.4856 10.3436C24.8915 9.9259 24.5974 9.1026 24.5974 7.8737C24.5974 6.70535 24.9515 5.88508 25.6626 5.40684C26.3737 4.93163 27.6008 4.69553 29.3441 4.69553H32.4495C34.1838 4.69553 35.4439 4.90741 36.2301 5.33419C37.0192 5.76098 37.4122 6.43596 37.4122 7.35612V8.08861H35.753V7.63761C35.753 7.12608 35.4979 6.77799 34.9909 6.59033C34.4808 6.39964 33.4307 6.30883 31.8374 6.30883H30.1332C28.429 6.30883 27.3698 6.40872 26.9498 6.61152C26.5297 6.81431 26.3227 7.23504 26.3227 7.87068C26.3227 8.51842 26.5327 8.95126 26.9498 9.16616C27.3698 9.37804 28.429 9.48398 30.1332 9.48398L33.1126 9.46279C34.4478 9.46279 35.3689 9.52635 35.885 9.65348C36.3951 9.77758 36.8031 9.99854 37.1032 10.3042C37.3732 10.5767 37.5652 10.8915 37.6733 11.2486C37.7843 11.6028 37.8413 12.2323 37.8413 13.1374C37.8413 14.1998 37.4872 14.9474 36.7791 15.3802C36.071 15.8131 34.7929 16.031 32.9416 16.031H28.54C27.0938 16.031 26.0706 15.7314 25.4796 15.132C24.8855 14.5327 24.5824 13.5066 24.5614 12.0568H26.1366V12.2475C26.1366 13.092 26.2987 13.661 26.6257 13.9486C26.9528 14.2361 27.7179 14.3784 28.924 14.3784H33.8177C34.7839 14.3784 35.3959 14.2664 35.66 14.0484C35.927 13.8275 36.056 13.3371 36.056 12.5774C36.056 11.9539 35.897 11.5331 35.579 11.3031C35.2639 11.0791 34.6818 10.9641 33.8327 10.9641H29.3471L29.3441 10.9671ZM20.7629 3.63614V2.94905H22.5091V3.63614H20.7629Z" fill="black"/>
<path d="M86.9632 5.47205C87.7643 4.87274 89.1085 4.57308 90.9958 4.57308H94.7613C96.6485 4.57308 97.9927 4.87274 98.7938 5.47205C99.5979 6.07137 100 7.0793 100 8.49888V9.89123C100 11.2503 99.5919 12.2219 98.7788 12.8091C97.9627 13.3963 96.6245 13.6899 94.7583 13.6899H90.9987C89.1325 13.6899 87.7943 13.3963 86.9782 12.8091C86.1651 12.2219 85.757 11.2503 85.757 9.89123V8.49888C85.757 7.08233 86.1561 6.07439 86.9632 5.47205Z" fill="url(#paint0_linear_109_1404)"/>
<path d="M98.9469 15.9116H86.8102V14.7402H98.9469V15.9116Z" fill="url(#paint1_linear_109_1404)"/>
<defs>
<linearGradient id="paint0_linear_109_1404" x1="80.3294" y1="6.20138" x2="102.134" y2="6.42829" gradientUnits="userSpaceOnUse">
<stop stopColor="#FF0000"/>
<stop offset="1" stopColor="#FFCC00"/>
</linearGradient>
<linearGradient id="paint1_linear_109_1404" x1="80.3294" y1="6.20138" x2="102.134" y2="6.42829" gradientUnits="userSpaceOnUse">
<stop stopColor="#FF0000"/>
<stop offset="1" stopColor="#FFCC00"/>
</linearGradient>
</defs>
</svg>
